# xmcd CD database file
#
# Track frame offsets:
#	150
#	15682
#	31440
#	45467
#	56707
#	74202
#	89580
#	109007
#	125057
#	139657
#	154407
#	168847
#	183635
#	205312
#	225407
#	243497
#	255462
#
# Disc length: 3742 seconds
#
# Revision: 0
# Processed by: cddbd v1.5.1PL2 Copyright (c) Steve Scherf et al.
# Submitted via: CDex 1.51
#
DISCID=f60e9c11
DTITLE=brownsuger - SOUL ESSENTIALS DJ MIX Chapter 2
DYEAR=2004
DGENRE=R&B
TTITLE0=Back on My Feet
TTITLE1=It's About Time
TTITLE2=2Nite
TTITLE3=Out Of Control
TTITLE4=Dance With Me
TTITLE5=Grimm
TTITLE6=Into The Blue
TTITLE7=Friends Keepers
TTITLE8=Firefry
TTITLE9=Ready For Your Love
TTITLE10=Never Too Much
TTITLE11=Cassanova
TTITLE12=If I Go Boy
TTITLE13=Playing Your Game
TTITLE14=R U Single
TTITLE15=Never Get Enough Of Your Love
TTITLE16=Only You
EXTD=YEAR: 2004
EXTT0=
EXTT1=
EXTT2=
EXTT3=
EXTT4=
EXTT5=
EXTT6=
EXTT7=
EXTT8=
EXTT9=
EXTT10=
EXTT11=
EXTT12=
EXTT13=
EXTT14=
EXTT15=
EXTT16=
PLAYORDER=
